<svg aria-hidden="true" style="position: absolute; width: 0; height: 0; overflow: hidden;" version="1.1" xmlns="http://www.w3.org/2000/svg" xmlns:xlink="http://www.w3.org/1999/xlink">
<defs>
<symbol id="icon-arrow-bold-left" viewBox="0 0 30 30">
<title>arrow-bold-left</title>
<path d="M15 3.75v5.25h10.5v12h-10.5v5.25l-11.25-11.25 11.25-11.25z"></path>
</symbol>
<symbol id="icon-arrow-bold-right" viewBox="0 0 30 30">
<title>arrow-bold-right</title>
<path d="M26.25 15l-11.25 11.25v-5.25h-10.5v-12h10.5v-5.25l11.25 11.25z"></path>
</symbol>
<symbol id="icon-arrow-long-left" viewBox="0 0 30 30">
<title>arrow-long-left</title>
<path d="M1.125 15l7.875-8.25v5.25h19.5v6h-19.5v5.25l-7.875-8.25z"></path>
</symbol>
<symbol id="icon-arrow-long-right" viewBox="0 0 30 30">
<title>arrow-long-right</title>
<path d="M21 23.25v-5.25h-19.5v-6h19.5v-5.25l7.875 8.25-7.875 8.25z"></path>
</symbol>
<symbol id="icon-arrow-with-circle-down" viewBox="0 0 30 30">
<title>arrow-with-circle-down</title>
<path d="M15 0.6c-7.955 0-14.401 6.447-14.401 14.4 0 7.955 6.447 14.401 14.401 14.401 7.951 0 14.4-6.447 14.4-14.401 0-7.953-6.449-14.4-14.4-14.4zM14.999 26.4c-6.295 0-11.4-5.103-11.4-11.4s5.103-11.4 11.4-11.4 11.401 5.105 11.401 11.4-5.106 11.4-11.401 11.4zM18 9h-6v6h-3.75l6.75 6.75 6.75-6.75h-3.75v-6z"></path>
</symbol>
<symbol id="icon-arrow-with-circle-up" viewBox="0 0 30 30">
<title>arrow-with-circle-up</title>
<path d="M15 0.6c-7.955 0-14.401 6.447-14.401 14.4 0 7.955 6.447 14.401 14.401 14.401 7.951 0 14.4-6.447 14.4-14.401 0-7.953-6.449-14.4-14.4-14.4zM14.999 26.4c-6.295 0-11.4-5.103-11.4-11.4s5.103-11.4 11.4-11.4 11.401 5.105 11.401 11.4-5.106 11.4-11.401 11.4zM15 8.25l6.75 6.75h-3.75v6h-6v-6h-3.75l6.75-6.75z"></path>
</symbol>
<symbol id="icon-chevron-down" viewBox="0 0 30 30">
<title>chevron-down</title>
<path d="M6.774 11.322c0.654-0.669 1.565-0.721 2.364 0l5.862 5.62 5.862-5.62c0.8-0.721 1.711-0.669 2.361 0 0.654 0.668 0.612 1.795 0 2.423-0.609 0.627-7.043 6.753-7.043 6.753-0.325 0.335-0.753 0.503-1.18 0.503s-0.855-0.168-1.184-0.503c0 0-6.43-6.126-7.042-6.753-0.614-0.627-0.654-1.755 0-2.423z"></path>
</symbol>
<symbol id="icon-chevron-left" viewBox="0 0 30 30">
<title>chevron-left</title>
<path d="M18.678 6.774c0.669 0.654 0.721 1.565 0 2.364l-5.62 5.862 5.62 5.862c0.721 0.8 0.669 1.711 0 2.361-0.668 0.654-1.795 0.612-2.422 0-0.627-0.609-6.753-7.043-6.753-7.043-0.335-0.325-0.502-0.753-0.502-1.18s0.168-0.855 0.502-1.184c0 0 6.126-6.43 6.753-7.042 0.627-0.614 1.755-0.654 2.422 0z"></path>
</symbol>
<symbol id="icon-chevron-right" viewBox="0 0 30 30">
<title>chevron-right</title>
<path d="M13.745 6.774c0.627 0.612 6.753 7.042 6.753 7.042 0.335 0.329 0.503 0.756 0.503 1.184s-0.168 0.855-0.503 1.18c0 0-6.126 6.434-6.753 7.043-0.627 0.612-1.755 0.654-2.422 0-0.669-0.651-0.721-1.561 0-2.361l5.62-5.862-5.62-5.862c-0.721-0.8-0.669-1.711 0-2.364 0.668-0.654 1.795-0.614 2.423 0z"></path>
</symbol>
<symbol id="icon-chevron-small-down" viewBox="0 0 30 30">
<title>chevron-small-down</title>
<path d="M20.127 11.789c0.406-0.402 1.064-0.402 1.467 0 0.405 0.402 0.408 1.051 0 1.454l-5.862 5.745c-0.405 0.402-1.060 0.402-1.469 0l-5.862-5.745c-0.405-0.4-0.405-1.051 0-1.454 0.406-0.402 1.064-0.402 1.467 0l5.131 4.711 5.127-4.711z"></path>
</symbol>
<symbol id="icon-chevron-small-up" viewBox="0 0 30 30">
<title>chevron-small-up</title>
<path d="M9.873 18.211c-0.406 0.402-1.064 0.402-1.467 0s-0.408-1.051 0-1.454l5.862-5.745c0.405-0.402 1.060-0.402 1.469 0l5.862 5.745c0.405 0.4 0.405 1.051 0 1.454-0.406 0.402-1.064 0.402-1.469 0l-5.13-4.711-5.127 4.711z"></path>
</symbol>
<symbol id="icon-chevron-thin-down" viewBox="0 0 30 30">
<title>chevron-thin-down</title>
<path d="M26.127 9.164c0.408-0.402 1.064-0.402 1.469 0s0.406 1.051 0 1.454l-11.862 11.745c-0.405 0.402-1.060 0.402-1.469 0l-11.862-11.745c-0.405-0.402-0.405-1.051 0-1.454 0.406-0.402 1.064-0.402 1.469 0l11.129 10.711 11.127-10.711z"></path>
</symbol>
<symbol id="icon-chevron-thin-left" viewBox="0 0 30 30">
<title>chevron-thin-left</title>
<path d="M20.836 26.127c0.402 0.408 0.402 1.064 0 1.469s-1.051 0.406-1.454 0l-11.745-11.862c-0.402-0.405-0.402-1.060 0-1.469l11.745-11.862c0.402-0.405 1.051-0.405 1.454 0 0.402 0.406 0.402 1.064 0 1.469l-10.711 11.129 10.711 11.127z"></path>
</symbol>
<symbol id="icon-chevron-thin-right" viewBox="0 0 30 30">
<title>chevron-thin-right</title>
<path d="M19.875 15l-10.711-11.13c-0.402-0.405-0.402-1.060 0-1.469 0.402-0.405 1.051-0.405 1.454 0l11.745 11.862c0.402 0.406 0.402 1.064 0 1.469l-11.745 11.862c-0.402 0.406-1.051 0.405-1.454 0-0.402-0.404-0.402-1.060 0-1.469l10.711-11.125z"></path>
</symbol>
<symbol id="icon-chevron-thin-up" viewBox="0 0 30 30">
<title>chevron-thin-up</title>
<path d="M3.873 20.836c-0.408 0.402-1.064 0.402-1.469 0s-0.406-1.051 0-1.454l11.862-11.745c0.405-0.402 1.060-0.402 1.469 0l11.862 11.745c0.405 0.402 0.405 1.051 0 1.454-0.406 0.402-1.064 0.402-1.467 0l-11.13-10.711-11.127 10.711z"></path>
</symbol>
<symbol id="icon-chevron-up" viewBox="0 0 30 30">
<title>chevron-up</title>
<path d="M23.226 18.678c-0.654 0.669-1.565 0.721-2.364 0l-5.862-5.62-5.862 5.62c-0.8 0.721-1.711 0.669-2.361 0-0.654-0.668-0.612-1.795 0-2.422 0.609-0.627 7.042-6.753 7.042-6.753 0.325-0.335 0.753-0.502 1.18-0.502s0.855 0.168 1.184 0.502c0 0 6.43 6.126 7.043 6.753 0.614 0.627 0.654 1.755 0 2.422z"></path>
</symbol>
<symbol id="icon-chevron-with-circle-down" viewBox="0 0 30 30">
<title>chevron-with-circle-down</title>
<path d="M18.758 13.047l-3.758 3.453-3.759-3.453c-0.297-0.294-0.777-0.294-1.077 0-0.295 0.294-0.295 0.772 0 1.065l4.296 4.21c0.299 0.294 0.78 0.294 1.075 0l4.296-4.21c0.299-0.292 0.297-0.771 0-1.065-0.295-0.294-0.775-0.294-1.074 0zM15 0.6c-7.953 0-14.4 6.447-14.4 14.4 0 7.955 6.447 14.4 14.4 14.4s14.4-6.445 14.4-14.4c0-7.953-6.447-14.4-14.4-14.4zM15 27.531c-6.922 0-12.531-5.61-12.531-12.531s5.609-12.531 12.531-12.531c6.92 0 12.531 5.61 12.531 12.531s-5.611 12.531-12.531 12.531z"></path>
</symbol>
<symbol id="icon-chevron-with-circle-up" viewBox="0 0 30 30">
<title>chevron-with-circle-up</title>
<path d="M15.539 11.678c-0.299-0.294-0.78-0.294-1.075 0l-4.296 4.21c-0.299 0.293-0.297 0.771 0 1.065 0.295 0.294 0.777 0.294 1.075 0l3.758-3.453 3.759 3.453c0.297 0.294 0.777 0.294 1.077 0 0.295-0.294 0.295-0.773 0-1.065l-4.298-4.21zM15 0.6c-7.953 0-14.4 6.447-14.4 14.4 0 7.955 6.447 14.4 14.4 14.4s14.4-6.445 14.4-14.4c0-7.953-6.447-14.4-14.4-14.4zM15 27.531c-6.922 0-12.531-5.61-12.531-12.531s5.609-12.531 12.531-12.531c6.92 0 12.531 5.61 12.531 12.531s-5.611 12.531-12.531 12.531z"></path>
</symbol>
<symbol id="icon-forward" viewBox="0 0 30 30">
<title>forward</title>
<path d="M18 17.811v6.535l10.5-10.035-10.5-9.858v5.975c-13.162 0-16.5 14.598-16.5 14.598 3.726-6.582 9.355-7.215 16.5-7.215z"></path>
</symbol>
<symbol id="icon-reply" viewBox="0 0 30 30">
<title>reply</title>
<path d="M28.5 25.027c0 0-3.337-14.598-16.5-14.598v-5.976l-10.5 9.86 10.5 10.035v-6.535c7.145-0.001 12.774 0.631 16.5 7.215z"></path>
</symbol>
<symbol id="icon-arrow-left-thick" viewBox="0 0 30 30">
<title>arrow-left-thick</title>
<path d="M22.5 13.75h-9.055l1.982-1.982c0.976-0.976 0.976-2.561 0-3.535-0.976-0.976-2.559-0.976-3.535 0l-8.018 8.018 8.018 8.017c0.487 0.489 1.127 0.733 1.768 0.733s1.279-0.244 1.768-0.733c0.976-0.976 0.976-2.561 0-3.535l-1.982-1.982h9.055c1.38 0 2.5-1.12 2.5-2.5 0-1.381-1.12-2.5-2.5-2.5z"></path>
</symbol>
<symbol id="icon-cross" viewBox="0 0 30 30">
<title>cross</title>
<path d="M29.726 24.101c-0-0-0-0-0-0l-9.101-9.101 9.101-9.101c0-0 0-0 0-0 0.098-0.098 0.169-0.213 0.214-0.334 0.124-0.333 0.053-0.723-0.215-0.991l-4.299-4.299c-0.268-0.268-0.658-0.339-0.991-0.214-0.122 0.045-0.236 0.116-0.335 0.214 0 0-0 0-0 0l-9.101 9.101-9.101-9.101c-0-0-0-0-0-0-0.098-0.098-0.213-0.169-0.334-0.214-0.333-0.124-0.723-0.053-0.991 0.214l-4.299 4.299c-0.268 0.268-0.339 0.658-0.215 0.991 0.045 0.122 0.116 0.236 0.214 0.334 0 0 0 0 0 0l9.101 9.101-9.101 9.101c-0 0-0 0-0 0-0.098 0.098-0.169 0.213-0.214 0.334-0.124 0.333-0.053 0.723 0.215 0.991l4.299 4.299c0.268 0.268 0.658 0.339 0.991 0.215 0.122-0.045 0.236-0.116 0.334-0.214 0-0 0-0 0-0l9.101-9.101 9.101 9.101c0 0 0 0 0 0 0.098 0.098 0.213 0.169 0.334 0.214 0.333 0.124 0.723 0.053 0.991-0.215l4.299-4.299c0.268-0.268 0.339-0.658 0.215-0.991-0.045-0.122-0.116-0.236-0.214-0.334z"></path>
</symbol>
<symbol id="icon-checkmark" viewBox="0 0 30 30">
<title>checkmark</title>
<path d="M25.313 3.75l-14.063 14.063-6.563-6.563-4.688 4.688 11.25 11.25 18.75-18.75z"></path>
</symbol>
</defs>
</svg>
